<svg xmlns="http://www.w3.org/2000/svg" viewBox="0 0 698.41 698.41"><defs><style>.cls-1{fill:#ffde17;}.cls-2{fill:#1c6396;}</style></defs><g id="Layer_2" data-name="Layer 2"><g id="Layer_1-2" data-name="Layer 1"><rect class="cls-1" width="698.41" height="698.41" rx="133.9"/><path class="cls-2" d="M489.67,66.89V491.06a140.47,140.47,0,1,1-280.93,0v-13.8h37v13.8a103.43,103.43,0,0,0,206.85,0V140.48l-39.13,29V123.38l39.13-29Z"/><path class="cls-2" d="M413.5,275.51V491.06a64.29,64.29,0,1,1-128.58,0v-13.8h37v13.8a27.26,27.26,0,0,0,54.51,0v-89.8H245.78v39h-37v-165l37-27.46,130.68-96.92V197L245.78,293.88v70.34H376.46V275.51Z"/></g></g></svg>